<?xml version="1.0" encoding="utf-8"?>
<!-- Generator: Adobe Illustrator 16.0.0, SVG Export Plug-In . SVG Version: 6.00 Build 0)  -->
<!DOCTYPE svg PUBLIC "-//W3C//DTD SVG 1.1//EN" "http://www.w3.org/Graphics/SVG/1.1/DTD/svg11.dtd">
<svg version="1.1" id="Layer_1" xmlns="http://www.w3.org/2000/svg" xmlns:xlink="http://www.w3.org/1999/xlink" x="0px" y="0px"
	 width="1200px" height="300px" viewBox="0 0 1200 300" enable-background="new 0 0 1200 300" xml:space="preserve">
<path fill="#F0F0F0" d="M1195.954,145.95l-55.72-92.809c-3.078-5.121-10.498-9.328-16.491-9.328h-0.183l-674.029,0.011
	c-4.837,59.213-13.961,170.305-18.373,222.891l692.402-0.013h0.183c5.993,0,13.413-4.183,16.491-9.324l21.251-35.362l34.469-57.408
	C1199.039,159.463,1199.039,151.071,1195.954,145.95z"/>
<path fill="#4D4D4D" d="M551.99,146.366h44.849v56.057c-12.185,4.178-25.556,6.249-40.178,6.249
	c-16.005,0-28.383-4.639-37.139-13.924c-8.76-9.287-13.111-22.561-13.111-39.778c0-16.763,4.773-29.805,14.36-39.152
	c9.578-9.354,22.984-13.962,40.24-13.962c6.55,0,12.707,0.59,18.5,1.839c5.837,1.22,10.906,2.769,15.222,4.646l-8.927,22.028
	c-7.476-3.693-15.705-5.534-24.667-5.534c-8.167,0-14.519,2.698-18.996,8.004c-4.513,5.336-6.718,12.936-6.718,22.854
	c0,9.717,2.006,17.125,6.091,22.225c4.015,5.105,9.842,7.61,17.486,7.61c4.183,0,8.032-0.364,11.522-1.193v-16.264H551.99V146.366z"
	/>
<text transform="matrix(1 0 0 1 884.0723 206.4072)" fill="#4D4D4D" font-family="'OpenSans-Semibold'" font-size="145.996" letter-spacing="-8">BH</text>
<path fill="#4D4D4D" d="M671.257,154.079c0-9.554-1.874-16.6-5.628-21.208c-3.758-4.577-9.52-6.884-17.188-6.884h-8.168v58.227
	h6.259c8.558,0,14.814-2.477,18.768-7.445C669.284,171.859,671.257,164.254,671.257,154.079 M700.396,153.09
	c0,17.322-4.737,30.693-14.318,40.077c-9.52,9.384-22.95,14.062-40.239,14.062h-33.621V103.298h35.958
	c16.659,0,29.54,4.285,38.622,12.812C695.889,124.611,700.396,136.957,700.396,153.09"/>
<path fill="#4D4D4D" d="M754.933,146.366h44.886v56.057c-12.188,4.178-25.589,6.249-40.176,6.249
	c-16.005,0-28.388-4.639-37.147-13.924c-8.728-9.287-13.103-22.561-13.103-39.778c0-16.763,4.772-29.805,14.354-39.152
	c9.551-9.354,22.981-13.962,40.242-13.962c6.521,0,12.713,0.59,18.54,1.839c5.761,1.22,10.836,2.769,15.145,4.646l-8.886,22.028
	c-7.475-3.693-15.714-5.534-24.666-5.534c-8.205,0-14.523,2.698-19.031,8.004c-4.449,5.336-6.688,12.936-6.688,22.854
	c0,9.717,2.008,17.125,6.058,22.225c4.052,5.105,9.879,7.61,17.517,7.61c4.183,0,8.042-0.364,11.531-1.193v-16.264h-18.574V146.366z
	"/>
<path fill="#0E9A54" d="M303.295,157.529c-10.353-11.984-31.384-35.005-46.667-44.102c-36.542-21.744-77.123-20.425-113.912,0.637
	C79.688,150.631,3.811,279.962,2.386,293.111c-0.218,2.013,1.64,3.665,3.662,3.665c0.318,0,38.801,0,39.172,0
	c1.171,0,2.169-0.587,2.84-1.442c0.487-0.624,77.137-120.857,112.264-141.785C206.492,115.1,268.969,120.695,303.295,157.529z"/>
<path fill="#1E8B4F" d="M365.27,263.153c-0.364-1.64-22.692-49.944-55.954-98.458c-32.579-43.145-99.977-51.967-148.992-11.146
	c23.302-13.882,46.003-17.263,70.252-5.062c17.403,8.756,31.528,21.595,44.157,36.164c20.324,23.448,36.109,49.806,49.041,77.9
	c1.756,3.817,3.739,5.218,7.929,5.067c9.356-0.333,18.741-0.343,28.097-0.002c0.666,0.024,1.25,0.012,1.788-0.024
	c-0.008,0-0.015-0.003-0.023-0.003c0.334-0.022,0.647-0.06,0.934-0.111c0.094-0.02,0.191-0.029,0.282-0.059
	c0.19-0.042,0.349-0.106,0.516-0.168c1.176-0.558,1.989-1.717,2.064-3.088C365.365,264.073,365.36,263.706,365.27,263.153z"/>
<path fill="#D5AC46" d="M304.661,124.318c0,0,4.387,37.968,4.655,40.377l0,0c33.262,48.514,55.59,96.818,55.954,98.458l0,0
	C363.918,248.862,304.661,124.318,304.661,124.318z"/>
<path fill="#F9C844" d="M338.776,1.981c0,0-43.604-0.028-43.718-0.028c-2.023,0-3.663,1.641-3.663,3.664
	c0,0.146,0.065,1.881,0.149,2.673c2.836,26.797,8.851,79.106,13.117,116.029c0,0.001,59.257,124.544,60.609,138.835
	C363.918,248.862,338.776,1.981,338.776,1.981z"/>
<path fill="#BB4235" d="M338.776,1.981l4.82,47.353c0,0-0.005-2.268,0.032-2.477c0.02-0.184,0.049-0.353,0.083-0.517
	c0.389-1.176,1.338-2.069,2.553-2.365c0.174-0.035,1.395-0.187,2.547-0.185c2.911,0.003,9.987,0.022,9.987,0.022L338.776,1.981z"/>
<path fill="#DB473B" d="M449.02,1.981c-0.066,0-64.498,0.03-110.243,0l20.021,41.832h90.735l0.171-1.635
	c0,0,2.936-35.86,2.936-36.088C452.64,3.481,451.54,1.981,449.02,1.981z"/>
<path fill="#398CC0" d="M449.533,43.813L402.081,70.29c-4.576,61.222-16.701,223.392-16.781,224.483
	c-0.001,0.011-0.001,0.021-0.001,0.03c0.005,1.479,0.894,2.742,2.161,3.319c0.46,0.207,0.962,0.335,1.5,0.335
	c0.166,0,35.874,0.854,36.042,0.854c2.023,0,3.663-1.643,3.663-3.67c0-0.005-0.003-0.01-0.003-0.012
	C429.249,291.097,443.137,122.096,449.533,43.813z"/>
<path fill="#3C7DA7" d="M449.533,43.813h-48.124c1.396,0.518,2.393,1.859,2.393,3.438c0,0.006-1.721,23.04-1.721,23.04
	L449.533,43.813z"/>
<path fill="#CAC8C8" d="M449.531,43.824c-4.837,59.213-13.961,170.305-18.373,222.891h18.373V43.824z"/>
</svg>
